<?xml version="1.0" encoding="UTF-8"?>
<svg width="25px" height="25px" viewBox="0 0 25 25" version="1.1" xmlns="http://www.w3.org/2000/svg" xmlns:xlink="http://www.w3.org/1999/xlink">
    <!-- Generator: Sketch 42 (36781) - http://www.bohemiancoding.com/sketch -->
    <title>home</title>
    <desc>Created with Sketch.</desc>
    <defs></defs>
    <g id="Page-1" stroke="none" stroke-width="1" fill="none" fill-rule="evenodd">
        <g id="Filled" transform="translate(-250.000000, -250.000000)" fill="#000000">
            <g id="home" transform="translate(250.000000, 250.000000)">
                <path d="M10,25 L10,15 L15,15 L15,25 L10,25 Z M21,2.5 L21,6.893 L17,2.893 L17,2.5 C17,2.224 17.224,2 17.5,2 L20.5,2 C20.776,2 21,2.224 21,2.5 Z M24.8535,12.1465 C25.0485,12.3415 25.0485,12.6585 24.8535,12.8535 C24.7555,12.9515 24.6275,13.0005 24.4995,13.0005 C24.3725,13.0005 24.2445,12.9515 24.1465,12.8535 L21.9995,10.7075 L21.9995,24.5005 C21.9995,24.7765 21.7765,25.0005 21.4995,25.0005 L15.9995,25.0005 L15.9995,14.5005 C15.9995,14.2235 15.7765,14.0005 15.4995,14.0005 L9.4995,14.0005 C9.2235,14.0005 8.9995,14.2235 8.9995,14.5005 L8.9995,25.0005 L3.4995,25.0005 C3.2235,25.0005 2.9995,24.7765 2.9995,24.5005 L2.9995,10.7075 L0.8535,12.8535 C0.6585,13.0485 0.3415,13.0485 0.1465,12.8535 C-0.0485,12.6585 -0.0485,12.3415 0.1465,12.1465 L3.1465,9.1465 L12.1465,0.1465 C12.3415,-0.0485 12.6585,-0.0485 12.8535,0.1465 L21.8535,9.1465 L24.8535,12.1465 Z" id="Combined-Shape"></path>
            </g>
        </g>
    </g>
</svg>